<svg width="270" height="270" viewBox="0 0 270 270" fill="none" xmlns="http://www.w3.org/2000/svg">
<path d="M135 270C209.558 270 270 209.558 270 135C270 60.4416 209.558 0 135 0C60.4416 0 0 60.4416 0 135C0 209.558 60.4416 270 135 270Z" fill="url(#paint0_linear)"/>
<path d="M135 238.09C191.935 238.09 238.09 191.935 238.09 135C238.09 78.065 191.935 31.91 135 31.91C78.0649 31.91 31.91 78.065 31.91 135C31.91 191.935 78.0649 238.09 135 238.09Z" fill="white"/>
<path d="M135 226.11C185.319 226.11 226.11 185.319 226.11 135C226.11 84.6814 185.319 43.89 135 43.89C84.6814 43.89 43.89 84.6814 43.89 135C43.89 185.319 84.6814 226.11 135 226.11Z" fill="white"/>
<path d="M162.12 92.29H107.89C103.727 92.2927 99.7351 93.9476 96.7914 96.8914C93.8476 99.8351 92.1927 103.827 92.19 107.99V162.21C92.1926 166.374 93.8473 170.367 96.7907 173.312C99.7342 176.258 103.726 177.915 107.89 177.92H162.12C166.283 177.912 170.273 176.254 173.216 173.309C176.159 170.365 177.815 166.373 177.82 162.21V108C177.815 103.838 176.159 99.8474 173.216 96.9043C170.273 93.9611 166.282 92.3053 162.12 92.3V92.29ZM135 163.29C129.425 163.29 123.974 161.637 119.338 158.539C114.703 155.442 111.089 151.039 108.956 145.888C106.822 140.737 106.264 135.069 107.352 129.6C108.439 124.132 111.124 119.109 115.067 115.167C119.009 111.224 124.032 108.539 129.5 107.452C134.969 106.364 140.637 106.922 145.788 109.056C150.939 111.189 155.342 114.803 158.439 119.438C161.537 124.074 163.19 129.525 163.19 135.1C163.179 142.573 160.206 149.737 154.922 155.022C149.637 160.306 142.473 163.279 135 163.29V163.29ZM164.1 112.74C162.781 112.74 161.491 112.349 160.394 111.616C159.297 110.883 158.443 109.841 157.938 108.623C157.433 107.404 157.301 106.063 157.558 104.769C157.816 103.475 158.451 102.286 159.384 101.354C160.316 100.421 161.505 99.7855 162.799 99.5282C164.093 99.2708 165.434 99.4029 166.652 99.9077C167.871 100.413 168.913 101.267 169.646 102.364C170.379 103.461 170.77 104.751 170.77 106.07C170.77 107.839 170.067 109.536 168.816 110.786C167.566 112.037 165.869 112.74 164.1 112.74V112.74Z" fill="url(#paint1_linear)"/>
<path d="M135 118.83C131.78 118.83 128.632 119.785 125.954 121.574C123.277 123.364 121.19 125.907 119.958 128.882C118.726 131.858 118.405 135.131 119.034 138.29C119.663 141.448 121.214 144.349 123.492 146.625C125.77 148.902 128.671 150.451 131.83 151.078C134.989 151.705 138.262 151.382 141.237 150.148C144.212 148.914 146.753 146.826 148.541 144.147C150.329 141.469 151.282 138.32 151.28 135.1C151.275 130.785 149.557 126.648 146.505 123.598C143.453 120.547 139.315 118.833 135 118.83V118.83Z" fill="url(#paint2_linear)"/>
<path d="M135 43.89C117.002 43.89 99.408 49.2271 84.4431 59.2263C69.4782 69.2255 57.8145 83.4377 50.9269 100.066C44.0394 116.694 42.2373 134.991 45.7485 152.643C49.2598 170.296 57.9267 186.51 70.6533 199.237C83.3798 211.963 99.5945 220.63 117.247 224.141C134.899 227.653 153.196 225.851 169.824 218.963C186.452 212.075 200.665 200.412 210.664 185.447C220.663 170.482 226 152.888 226 134.89C226 122.94 223.646 111.106 219.073 100.066C214.5 89.0252 207.797 78.9934 199.347 70.5433C190.897 62.0932 180.865 55.3902 169.824 50.817C158.784 46.2438 146.95 43.89 135 43.89V43.89ZM189.72 162.21C189.715 169.529 186.805 176.547 181.631 181.724C176.456 186.9 169.439 189.812 162.12 189.82H107.89C100.57 189.812 93.5517 186.901 88.3755 181.724C83.1994 176.548 80.2879 169.53 80.28 162.21V108C80.2906 100.681 83.2029 93.6641 88.3785 88.4885C93.554 83.3129 100.571 80.4006 107.89 80.39H162.12C169.438 80.4006 176.454 83.3132 181.628 88.4891C186.802 93.665 189.712 100.682 189.72 108V162.21Z" fill="url(#paint3_linear)"/>
<defs>
<linearGradient id="paint0_linear" x1="9.71" y1="242.19" x2="393.02" y2="-85.74" gradientUnits="userSpaceOnUse">
<stop stop-color="#FCEE21"/>
<stop offset="0.25" stop-color="#FF0000"/>
<stop offset="0.5" stop-color="#FF00FF"/>
<stop offset="0.79" stop-color="#0000FF"/>
<stop offset="1" stop-color="#662D91"/>
</linearGradient>
<linearGradient id="paint1_linear" x1="1267.03" y1="26862.8" x2="23722.6" y2="83.7258" gradientUnits="userSpaceOnUse">
<stop stop-color="#FCEE21"/>
<stop offset="0.25" stop-color="#FF0000"/>
<stop offset="0.5" stop-color="#FF00FF"/>
<stop offset="0.79" stop-color="#0000FF"/>
<stop offset="1" stop-color="#662D91"/>
</linearGradient>
<linearGradient id="paint2_linear" x1="565.443" y1="10298.1" x2="9103.98" y2="115.574" gradientUnits="userSpaceOnUse">
<stop stop-color="#FCEE21"/>
<stop offset="0.25" stop-color="#FF0000"/>
<stop offset="0.5" stop-color="#FF00FF"/>
<stop offset="0.79" stop-color="#0000FF"/>
<stop offset="1" stop-color="#662D91"/>
</linearGradient>
<linearGradient id="paint3_linear" x1="2519.2" y1="56922.5" x2="50245.1" y2="5.67075" gradientUnits="userSpaceOnUse">
<stop stop-color="#FCEE21"/>
<stop offset="0.25" stop-color="#FF0000"/>
<stop offset="0.5" stop-color="#FF00FF"/>
<stop offset="0.79" stop-color="#0000FF"/>
<stop offset="1" stop-color="#662D91"/>
</linearGradient>
</defs>
</svg>
