<svg width="512" height="512" viewBox="0 0 512 512" fill="none" xmlns="http://www.w3.org/2000/svg">
<path d="M7.90002 256C7.90002 119 119 7.90002 256 7.90002C393 7.90002 504.1 119 504.1 256C504.1 393 393 504.1 256 504.1C119 504.1 7.90002 393 7.90002 256Z" fill="#D42428"/>
<path d="M431.4 80.6C528.3 177.5 528.3 334.6 431.4 431.4C334.5 528.3 177.4 528.3 80.6 431.4L431.4 80.6Z" fill="#CC202D"/>
<path d="M500.3 298.9L333.4 132L319.9 145.5L306.4 132L291.6 146.8L301.5 156.7L298.3 159.9L272.6 134.2L271.5 135.3L236.9 100.7L222.1 115.5L226.1 119.5L220.2 125.4L195.2 100.4L184.8 110.8L209.1 169.4L198.1 214.4L228.1 244.4L152.3 249.7L151.2 381.3L273.2 503.4C387.6 495.3 481 409.8 500.3 298.9V298.9Z" fill="#BA202E"/>
<path d="M344.7 313.5H328.7L328.8 304.2C328.8 300.1 332.2 296.7 336.3 296.7H337.3C341.4 296.7 344.9 300.1 344.9 304.2L344.7 313.5V313.5ZM284.7 293.6C280.7 293.6 277.3 296.3 277.3 299.7V344.9C277.3 348.2 280.6 351 284.7 351C288.8 351 292.1 348.3 292.1 344.9V299.7C292.1 296.3 288.8 293.6 284.7 293.6ZM382.2 268.3V354.3C382.2 374.9 364.3 391.8 342.5 391.8H179C157.1 391.8 139.3 374.9 139.3 354.3V268.3C139.3 247.7 157.2 230.8 179 230.8H342.4C364.3 230.9 382.2 247.7 382.2 268.3ZM189.9 363.6V273.1H210.2V259.7L156.2 259.6V272.8L173.1 272.9V363.7H189.9V363.6ZM250.7 286.6H233.8V334.9C233.8 341.9 234.2 345.4 233.8 346.6C232.4 350.3 226.2 354.3 223.8 347C223.4 345.7 223.8 341.8 223.7 335.2L223.6 286.5H206.8L206.9 334.4C206.9 341.7 206.7 347.2 207 349.7C207.4 354.1 207.3 359.2 211.3 362.1C218.9 367.6 233.5 361.3 237.1 353.5V363.5H250.7V286.6V286.6ZM304.7 341.9V301.7C304.7 286.4 293.2 277.2 277.6 289.6L277.7 259.7H260.8L260.7 363L274.6 362.8L275.9 356.4C293.6 372.6 304.7 361.4 304.7 341.9V341.9ZM357.5 336.6L344.8 336.7V345.5C344.8 349.3 341.7 352.4 337.9 352.4H335.4C331.6 352.4 328.5 349.3 328.5 345.5V326.9H357.5V316C357.5 308 357.3 300.1 356.6 295.5C354.5 281.1 334.3 278.8 324.1 286.2C320.9 288.5 318.4 291.6 317 295.7C315.6 299.8 314.9 305.5 314.9 312.7V336.7C314.9 376.6 363.3 370.9 357.5 336.6V336.6ZM292.6 206.3C293.5 208.4 294.8 210.1 296.7 211.4C298.5 212.7 300.8 213.3 303.6 213.3C306 213.3 308.2 212.6 310.1 211.3C312 209.9 313.6 207.9 314.8 205.2L314.5 211.8H333.3V131.8H318.5V194.1C318.5 197.5 315.7 200.2 312.3 200.2C308.9 200.2 306.1 197.4 306.1 194.1V131.8H290.6V185.8C290.6 192.7 290.7 197.3 290.9 199.6C291.2 202 291.7 204.2 292.6 206.3ZM235.5 161.1C235.5 153.4 236.1 147.4 237.4 143.1C238.7 138.8 241 135.3 244.3 132.7C247.6 130.1 251.9 128.8 257.1 128.8C261.5 128.8 265.2 129.7 268.3 131.3C271.4 133 273.8 135.2 275.5 137.9C277.2 140.6 278.4 143.4 279 146.2C279.6 149.1 279.9 153.4 279.9 159.3V179.6C279.9 187 279.6 192.5 279 196C278.4 199.5 277.2 202.7 275.3 205.7C273.4 208.7 271 210.9 268 212.4C265 213.8 261.6 214.5 257.8 214.5C253.5 214.5 249.9 213.9 246.9 212.7C243.9 211.5 241.6 209.6 240 207.2C238.3 204.7 237.2 201.7 236.5 198.2C235.8 194.7 235.5 189.4 235.5 182.4V161.1V161.1ZM250.3 192.9C250.3 197.4 253.7 201.1 257.8 201.1C261.9 201.1 265.3 197.4 265.3 192.9V150.3C265.3 145.8 261.9 142.1 257.8 142.1C253.7 142.1 250.3 145.8 250.3 150.3V192.9V192.9ZM198.2 214.5H216V153.1L237 100.5H217.6L206.4 139.6L195.1 100.4H175.9L198.2 153.1V214.5V214.5Z" fill="white"/>
</svg>
